<svg width="496" height="496" viewBox="0 0 496 496" fill="none" xmlns="http://www.w3.org/2000/svg">
<g clip-path="url(#clip0_9_2)">
<mask id="mask0_9_2" style="mask-type:alpha" maskUnits="userSpaceOnUse" x="0" y="0" width="496" height="496">
<path d="M496 0H0V496H496V0Z" fill="#D9D9D9"/>
</mask>
<g mask="url(#mask0_9_2)">
<path d="M87.5002 290C19.9998 335 19.5003 440 96.5002 467.5C141.3 483.5 187.974 465 202.206 436C229.412 388.653 237.448 341.307 191.449 267.221C191.194 266.81 191.261 266.264 191.619 265.939L256 207.5C256 207.5 230.5 187.5 199.5 184C144.112 234 87.5002 290 87.5002 290Z" fill="#FFFFFF"/>
<path d="M256 207.5L191.619 265.939C191.261 266.264 191.194 266.81 191.449 267.221C237.448 341.307 229.412 388.653 202.206 436C202.206 436 261.2 362.863 299 316C311.5 257.5 256 207.5 256 207.5Z" fill="#FFFFFF"/>
<path d="M310 158C330 173.5 352 253 352 253C352 253 434.5 172 453 148.5C471.155 125.439 433.455 31.5959 407.47 22.4301C406.606 22.1253 405.734 22.5225 405.304 23.3317C402.551 28.5164 397.337 37.5043 390.62 48.5C368.655 84.4562 330.616 141.882 310 158Z" fill="#FFFFFF"/>
<path d="M390.62 48.5C383.817 44.8718 331.028 30.7435 326.687 30.1004C310.385 59.7864 262.801 118.246 247 136.5C247 136.5 284.5 131.5 310 158C330.616 141.882 368.655 84.4562 390.62 48.5Z" fill="#FFFFFF"/>
<path d="M199.5 184C230.5 187.5 256 207.5 256 207.5C256 207.5 311.5 257.5 299 316C324.438 338.65 364.591 371.038 372.946 377.753C373.593 378.272 374.524 377.8 374.541 376.971L375.469 330.097C375.487 329.163 376.15 328.366 377.065 328.178L424.525 318.407C425.335 318.24 425.604 317.218 424.98 316.674L352 253C352 253 330 173.5 310 158C284.5 131.5 247 136.5 247 136.5C230.121 156 218.644 166.718 199.5 184Z" fill="#ffb220"/>
<path d="M390.62 48.5C383.817 44.8718 331.028 30.7435 326.687 30.1004M390.62 48.5C397.337 37.5043 402.551 28.5164 405.304 23.3317C405.734 22.5225 406.606 22.1253 407.47 22.4301C433.455 31.5959 471.155 125.439 453 148.5C434.5 172 352 253 352 253M390.62 48.5C368.655 84.4562 330.616 141.882 310 158M326.687 30.1004C326.273 30.0392 326.889 29.7339 326.687 30.1004ZM326.687 30.1004C310.385 59.7864 262.801 118.246 247 136.5M247 136.5C230.121 156 218.644 166.718 199.5 184M247 136.5C247 136.5 284.5 131.5 310 158M87.5002 290C19.9998 335 19.5003 440 96.5002 467.5C141.3 483.5 187.974 465 202.206 436M87.5002 290C87.5002 290 144.112 234 199.5 184M87.5002 290C117.5 277.143 191.675 311.604 167 381C143 448.5 90.5 404.059 90.5 385C90.5 365 132.5 336 132.5 336M202.206 436C229.412 388.653 237.448 341.307 191.449 267.221C191.194 266.81 191.261 266.264 191.619 265.939L256 207.5M202.206 436C202.206 436 261.2 362.863 299 316M199.5 184C230.5 187.5 256 207.5 256 207.5M256 207.5C256 207.5 311.5 257.5 299 316M299 316C324.438 338.65 364.591 371.038 372.946 377.753C373.593 378.272 374.524 377.8 374.541 376.971L375.469 330.097C375.487 329.163 376.15 328.366 377.065 328.178L424.525 318.407C425.335 318.24 425.604 317.218 424.98 316.674L352 253M352 253C352 253 330 173.5 310 158" stroke="#ffb220" stroke-width="20"/>
</g>
</g>
<defs>
<clipPath id="clip0_9_2">
<rect width="496" height="496" fill="white"/>
</clipPath>
</defs>
</svg>
