<svg width="512" height="512" viewBox="0 0 512 512" fill="none" xmlns="http://www.w3.org/2000/svg">
<mask id="mask0_22_18" style="mask-type:alpha" maskUnits="userSpaceOnUse" x="0" y="0" width="512" height="512">
<rect width="512" height="512" fill="white"/>
</mask>
<g mask="url(#mask0_22_18)">
<path d="M271 204.5C317.5 154.5 308 27 328.5 27C349 27 339.752 149.572 388 204.5C420.5 241.5 488 232.5 488 256C488 271 416 269.5 380.5 316C345 362.5 348 485 328.5 485C309 485 316.281 368.857 279 319.5C243.5 272.5 169.5 270.5 169.5 256C169.5 238 240.73 237.048 271 204.5Z" fill="#FFB220"/>
<path d="M380.5 316C345 362.5 348 485 328.5 485C328.5 485 333.5 337 355.5 300C368.791 277.648 488 256 488 256C488 271 416 269.5 380.5 316Z" fill="#EEA51C"/>
<path d="M388 204.5C420.5 241.5 488 232.5 488 256C488 256 380 236.374 357.5 215C339.604 198 328.5 27 328.5 27C349 27 339.752 149.572 388 204.5Z" fill="#FFCF75"/>
<path d="M75.467 339.504C99.0455 314.151 94.2284 249.5 104.623 249.5C115.018 249.5 110.329 311.652 134.793 339.504C151.273 358.265 185.5 353.702 185.5 365.618C185.5 373.224 148.991 372.463 130.991 396.041C112.99 419.62 114.511 481.735 104.623 481.735C94.7355 481.735 98.4272 422.844 79.5235 397.816C61.5227 373.984 24 372.97 24 365.618C24 356.49 60.1181 356.008 75.467 339.504Z" fill="#FFB220"/>
<path d="M130.99 396.041C112.99 419.62 114.511 481.735 104.623 481.735C104.623 481.735 107.158 406.69 118.314 387.928C125.053 376.595 185.5 365.618 185.5 365.618C185.5 373.224 148.991 372.463 130.99 396.041Z" fill="#EEA51C"/>
<path d="M134.793 339.504C151.273 358.265 185.5 353.702 185.5 365.618C185.5 365.618 130.737 355.666 119.328 344.828C110.254 336.208 104.623 249.5 104.623 249.5C115.018 249.5 110.329 311.652 134.793 339.504Z" fill="#FFCF75"/>
<path d="M155.094 92.3683C172.087 74.0955 168.616 27.5 176.107 27.5C183.599 27.5 180.22 72.2946 197.852 92.3683C209.729 105.89 234.398 102.601 234.398 111.189C234.398 116.671 208.085 116.123 195.111 133.117C182.138 150.11 183.234 194.878 176.107 194.878C168.981 194.878 171.642 152.434 158.017 134.396C145.044 117.219 118 116.488 118 111.189C118 104.611 144.031 104.263 155.094 92.3683Z" fill="#FF8B20"/>
</g>
</svg>
